<svg width="92" height="18" viewBox="0 0 92 18" fill="none" xmlns="http://www.w3.org/2000/svg">
<path d="M0.287609 14V0.589999H5.43561C6.35961 0.589999 7.17561 0.751999 7.88361 1.076C8.60361 1.4 9.16761 1.88 9.57561 2.516C9.98361 3.152 10.1876 3.938 10.1876 4.874C10.1876 5.786 9.97761 6.56 9.55761 7.196C9.14961 7.832 8.58561 8.318 7.86561 8.654C7.15761 8.978 6.34761 9.14 5.43561 9.14H3.07761V14H0.287609ZM3.07761 6.71H5.45361C5.84961 6.71 6.19161 6.632 6.47961 6.476C6.76761 6.32 6.98961 6.104 7.14561 5.828C7.31361 5.552 7.39761 5.234 7.39761 4.874C7.39761 4.502 7.31361 4.178 7.14561 3.902C6.98961 3.626 6.76761 3.41 6.47961 3.254C6.19161 3.098 5.84961 3.02 5.45361 3.02H3.07761V6.71ZM14.2761 14.216C13.5681 14.216 12.9561 14.102 12.4401 13.874C11.9241 13.646 11.5281 13.322 11.2521 12.902C10.9761 12.47 10.8381 11.96 10.8381 11.372C10.8381 10.82 10.9641 10.334 11.2161 9.914C11.4681 9.482 11.8521 9.122 12.3681 8.834C12.8961 8.546 13.5501 8.342 14.3301 8.222L17.3361 7.736V9.716L14.8161 10.166C14.4321 10.238 14.1381 10.364 13.9341 10.544C13.7301 10.712 13.6281 10.958 13.6281 11.282C13.6281 11.582 13.7421 11.816 13.9701 11.984C14.1981 12.152 14.4801 12.236 14.8161 12.236C15.2601 12.236 15.6501 12.14 15.9861 11.948C16.3221 11.756 16.5801 11.498 16.7601 11.174C16.9521 10.838 17.0481 10.472 17.0481 10.076V7.52C17.0481 7.148 16.8981 6.836 16.5981 6.584C16.3101 6.332 15.9141 6.206 15.4101 6.206C14.9301 6.206 14.5041 6.338 14.1321 6.602C13.7721 6.866 13.5081 7.214 13.3401 7.646L11.1801 6.62C11.3721 6.068 11.6781 5.594 12.0981 5.198C12.5181 4.802 13.0221 4.496 13.6101 4.28C14.1981 4.064 14.8401 3.956 15.5361 3.956C16.3641 3.956 17.0961 4.106 17.7321 4.406C18.3681 4.706 18.8601 5.126 19.2081 5.666C19.5681 6.194 19.7481 6.812 19.7481 7.52V14H17.2281V12.416L17.8401 12.308C17.5521 12.74 17.2341 13.1 16.8861 13.388C16.5381 13.664 16.1481 13.868 15.7161 14C15.2841 14.144 14.8041 14.216 14.2761 14.216ZM21.7283 14V4.172H24.2483V6.53L24.0683 6.188C24.2843 5.36 24.6383 4.802 25.1303 4.514C25.6343 4.214 26.2283 4.064 26.9123 4.064H27.4883V6.404H26.6423C25.9823 6.404 25.4483 6.608 25.0403 7.016C24.6323 7.412 24.4283 7.976 24.4283 8.708V14H21.7283ZM33.7572 14.108C32.5692 14.108 31.6452 13.79 30.9852 13.154C30.3372 12.506 30.0132 11.606 30.0132 10.454V6.512H28.3572V4.172H28.4472C28.9512 4.172 29.3352 4.046 29.5992 3.794C29.8752 3.542 30.0132 3.164 30.0132 2.66V1.94H32.7132V4.172H35.0172V6.512H32.7132V10.274C32.7132 10.61 32.7732 10.892 32.8932 11.12C33.0132 11.336 33.1992 11.498 33.4512 11.606C33.7032 11.714 34.0152 11.768 34.3872 11.768C34.4712 11.768 34.5672 11.762 34.6752 11.75C34.7832 11.738 34.8972 11.726 35.0172 11.714V14C34.8372 14.024 34.6332 14.048 34.4052 14.072C34.1772 14.096 33.9612 14.108 33.7572 14.108ZM38.1294 17.996C37.8414 17.996 37.5594 17.972 37.2834 17.924C37.0194 17.876 36.7854 17.798 36.5814 17.69V15.476C36.7494 15.524 36.9474 15.566 37.1754 15.602C37.4034 15.638 37.6134 15.656 37.8054 15.656C38.3334 15.656 38.7114 15.53 38.9394 15.278C39.1674 15.026 39.3534 14.738 39.4974 14.414L40.1634 12.884L40.1274 15.134L35.8074 4.172H38.7054L41.5674 11.966H40.4874L43.3494 4.172H46.2474L42.0354 14.918C41.7714 15.602 41.4474 16.172 41.0634 16.628C40.6794 17.084 40.2414 17.426 39.7494 17.654C39.2694 17.882 38.7294 17.996 38.1294 17.996Z" fill="white"/>
<path d="M53.2719 14V3.02H49.8699V0.589999H59.4099V3.02H56.0619V14H53.2719ZM60.5935 14V4.172H63.2935V14H60.5935ZM60.5935 3.29V0.589999H63.2935V3.29H60.5935ZM65.2693 14V4.172H67.7893V6.566L67.5193 6.17C67.6633 5.414 68.0113 4.856 68.5633 4.496C69.1153 4.136 69.7753 3.956 70.5433 3.956C71.3593 3.956 72.0733 4.166 72.6853 4.586C73.3093 4.994 73.6993 5.546 73.8553 6.242L73.0813 6.314C73.4053 5.51 73.8673 4.916 74.4673 4.532C75.0673 4.148 75.7693 3.956 76.5733 3.956C77.2813 3.956 77.9053 4.112 78.4453 4.424C78.9973 4.736 79.4293 5.174 79.7413 5.738C80.0533 6.29 80.2093 6.938 80.2093 7.682V14H77.5093V8.258C77.5093 7.874 77.4373 7.544 77.2933 7.268C77.1613 6.992 76.9693 6.776 76.7173 6.62C76.4653 6.464 76.1593 6.386 75.7993 6.386C75.4513 6.386 75.1453 6.464 74.8813 6.62C74.6293 6.776 74.4313 6.992 74.2873 7.268C74.1553 7.544 74.0893 7.874 74.0893 8.258V14H71.3893V8.258C71.3893 7.874 71.3173 7.544 71.1733 7.268C71.0413 6.992 70.8493 6.776 70.5973 6.62C70.3453 6.464 70.0393 6.386 69.6793 6.386C69.3313 6.386 69.0253 6.464 68.7613 6.62C68.5093 6.776 68.3113 6.992 68.1673 7.268C68.0353 7.544 67.9693 7.874 67.9693 8.258V14H65.2693ZM86.7201 14.216C85.6761 14.216 84.7701 13.988 84.0021 13.532C83.2341 13.064 82.6401 12.44 82.2201 11.66C81.8001 10.88 81.5901 10.016 81.5901 9.068C81.5901 8.084 81.8061 7.208 82.2381 6.44C82.6821 5.672 83.2761 5.066 84.0201 4.622C84.7641 4.178 85.6041 3.956 86.5401 3.956C87.3201 3.956 88.0101 4.082 88.6101 4.334C89.2101 4.574 89.7141 4.916 90.1221 5.36C90.5421 5.804 90.8601 6.32 91.0761 6.908C91.2921 7.484 91.4001 8.114 91.4001 8.798C91.4001 8.99 91.3881 9.182 91.3641 9.374C91.3521 9.554 91.3221 9.71 91.2741 9.842H83.9121V7.862H89.7441L88.4661 8.798C88.5861 8.282 88.5801 7.826 88.4481 7.43C88.3161 7.022 88.0821 6.704 87.7461 6.476C87.4221 6.236 87.0201 6.116 86.5401 6.116C86.0721 6.116 85.6701 6.23 85.3341 6.458C84.9981 6.686 84.7461 7.022 84.5781 7.466C84.4101 7.91 84.3441 8.45 84.3801 9.086C84.3321 9.638 84.3981 10.124 84.5781 10.544C84.7581 10.964 85.0341 11.294 85.4061 11.534C85.7781 11.762 86.2281 11.876 86.7561 11.876C87.2361 11.876 87.6441 11.78 87.9801 11.588C88.3281 11.396 88.5981 11.132 88.7901 10.796L90.9501 11.822C90.7581 12.302 90.4521 12.722 90.0321 13.082C89.6241 13.442 89.1381 13.724 88.5741 13.928C88.0101 14.12 87.3921 14.216 86.7201 14.216Z" fill="#1AAB7B"/>
</svg>
    