<svg width="128" height="25" viewBox="0 0 128 25" fill="none" xmlns="http://www.w3.org/2000/svg">
<path d="M0.62168 19V0.374998H7.77168C9.05501 0.374998 10.1883 0.599998 11.1717 1.05C12.1717 1.5 12.955 2.16667 13.5217 3.05C14.0883 3.93333 14.3717 5.025 14.3717 6.325C14.3717 7.59167 14.08 8.66667 13.4967 9.55C12.93 10.4333 12.1467 11.1083 11.1467 11.575C10.1633 12.025 9.03835 12.25 7.77168 12.25H4.49668V19H0.62168ZM4.49668 8.875H7.79668C8.34668 8.875 8.82168 8.76667 9.22168 8.55C9.62168 8.33333 9.93001 8.03333 10.1467 7.65C10.38 7.26667 10.4967 6.825 10.4967 6.325C10.4967 5.80833 10.38 5.35833 10.1467 4.975C9.93001 4.59167 9.62168 4.29167 9.22168 4.075C8.82168 3.85833 8.34668 3.75 7.79668 3.75H4.49668V8.875ZM20.0502 19.3C19.0669 19.3 18.2169 19.1417 17.5002 18.825C16.7835 18.5083 16.2335 18.0583 15.8502 17.475C15.4669 16.875 15.2752 16.1667 15.2752 15.35C15.2752 14.5833 15.4502 13.9083 15.8002 13.325C16.1502 12.725 16.6835 12.225 17.4002 11.825C18.1335 11.425 19.0419 11.1417 20.1252 10.975L24.3002 10.3V13.05L20.8002 13.675C20.2669 13.775 19.8585 13.95 19.5752 14.2C19.2919 14.4333 19.1502 14.775 19.1502 15.225C19.1502 15.6417 19.3085 15.9667 19.6252 16.2C19.9419 16.4333 20.3335 16.55 20.8002 16.55C21.4169 16.55 21.9585 16.4167 22.4252 16.15C22.8919 15.8833 23.2502 15.525 23.5002 15.075C23.7669 14.6083 23.9002 14.1 23.9002 13.55V10C23.9002 9.48333 23.6919 9.05 23.2752 8.7C22.8752 8.35 22.3252 8.175 21.6252 8.175C20.9585 8.175 20.3669 8.35833 19.8502 8.725C19.3502 9.09167 18.9835 9.575 18.7502 10.175L15.7502 8.75C16.0169 7.98333 16.4419 7.325 17.0252 6.775C17.6085 6.225 18.3085 5.8 19.1252 5.5C19.9419 5.2 20.8335 5.05 21.8002 5.05C22.9502 5.05 23.9669 5.25833 24.8502 5.675C25.7335 6.09167 26.4169 6.675 26.9002 7.425C27.4002 8.15833 27.6502 9.01667 27.6502 10V19H24.1502V16.8L25.0002 16.65C24.6002 17.25 24.1585 17.75 23.6752 18.15C23.1919 18.5333 22.6502 18.8167 22.0502 19C21.4502 19.2 20.7835 19.3 20.0502 19.3ZM30.4004 19V5.35H33.9004V8.625L33.6504 8.15C33.9504 7 34.4421 6.225 35.1254 5.825C35.8254 5.40833 36.6504 5.2 37.6004 5.2H38.4004V8.45H37.2254C36.3087 8.45 35.5671 8.73333 35.0004 9.3C34.4337 9.85 34.1504 10.6333 34.1504 11.65V19H30.4004ZM47.1072 19.15C45.4572 19.15 44.1739 18.7083 43.2572 17.825C42.3572 16.925 41.9072 15.675 41.9072 14.075V8.6H39.6072V5.35H39.7322C40.4322 5.35 40.9656 5.175 41.3322 4.825C41.7156 4.475 41.9072 3.95 41.9072 3.25V2.25H45.6572V5.35H48.8572V8.6H45.6572V13.825C45.6572 14.2917 45.7406 14.6833 45.9072 15C46.0739 15.3 46.3322 15.525 46.6822 15.675C47.0322 15.825 47.4656 15.9 47.9822 15.9C48.0989 15.9 48.2322 15.8917 48.3822 15.875C48.5322 15.8583 48.6906 15.8417 48.8572 15.825V19C48.6072 19.0333 48.3239 19.0667 48.0072 19.1C47.6906 19.1333 47.3906 19.15 47.1072 19.15ZM53.1797 24.55C52.7797 24.55 52.388 24.5167 52.0047 24.45C51.638 24.3833 51.313 24.275 51.0297 24.125V21.05C51.263 21.1167 51.538 21.175 51.8547 21.225C52.1714 21.275 52.463 21.3 52.7297 21.3C53.463 21.3 53.988 21.125 54.3047 20.775C54.6214 20.425 54.8797 20.025 55.0797 19.575L56.0047 17.45L55.9547 20.575L49.9547 5.35H53.9797L57.9547 16.175H56.4547L60.4297 5.35H64.4547L58.6047 20.275C58.238 21.225 57.788 22.0167 57.2547 22.65C56.7214 23.2833 56.113 23.7583 55.4297 24.075C54.763 24.3917 54.013 24.55 53.1797 24.55Z" fill="black"/>
<path d="M74.2109 19V3.75H69.4859V0.374998H82.7359V3.75H78.0859V19H74.2109ZM84.3799 19V5.35H88.1299V19H84.3799ZM84.3799 4.125V0.374998H88.1299V4.125H84.3799ZM90.874 19V5.35H94.374V8.675L93.999 8.125C94.199 7.075 94.6824 6.3 95.449 5.8C96.2157 5.3 97.1324 5.05 98.199 5.05C99.3324 5.05 100.324 5.34167 101.174 5.925C102.041 6.49167 102.582 7.25833 102.799 8.225L101.724 8.325C102.174 7.20833 102.816 6.38333 103.649 5.85C104.482 5.31667 105.457 5.05 106.574 5.05C107.557 5.05 108.424 5.26667 109.174 5.7C109.941 6.13333 110.541 6.74167 110.974 7.525C111.407 8.29167 111.624 9.19167 111.624 10.225V19H107.874V11.025C107.874 10.4917 107.774 10.0333 107.574 9.65C107.391 9.26667 107.124 8.96667 106.774 8.75C106.424 8.53333 105.999 8.425 105.499 8.425C105.016 8.425 104.591 8.53333 104.224 8.75C103.874 8.96667 103.599 9.26667 103.399 9.65C103.216 10.0333 103.124 10.4917 103.124 11.025V19H99.374V11.025C99.374 10.4917 99.274 10.0333 99.074 9.65C98.8907 9.26667 98.624 8.96667 98.274 8.75C97.924 8.53333 97.499 8.425 96.999 8.425C96.5157 8.425 96.0907 8.53333 95.724 8.75C95.374 8.96667 95.099 9.26667 94.899 9.65C94.7157 10.0333 94.624 10.4917 94.624 11.025V19H90.874ZM120.667 19.3C119.217 19.3 117.958 18.9833 116.892 18.35C115.825 17.7 115 16.8333 114.417 15.75C113.833 14.6667 113.542 13.4667 113.542 12.15C113.542 10.7833 113.842 9.56667 114.442 8.5C115.058 7.43333 115.883 6.59167 116.917 5.975C117.95 5.35833 119.117 5.05 120.417 5.05C121.5 5.05 122.458 5.225 123.292 5.575C124.125 5.90833 124.825 6.38333 125.392 7C125.975 7.61667 126.417 8.33333 126.717 9.15C127.017 9.95 127.167 10.825 127.167 11.775C127.167 12.0417 127.15 12.3083 127.117 12.575C127.1 12.825 127.058 13.0417 126.992 13.225H116.767V10.475H124.867L123.092 11.775C123.258 11.0583 123.25 10.425 123.067 9.875C122.883 9.30833 122.558 8.86667 122.092 8.55C121.642 8.21667 121.083 8.05 120.417 8.05C119.767 8.05 119.208 8.20833 118.742 8.525C118.275 8.84167 117.925 9.30833 117.692 9.925C117.458 10.5417 117.367 11.2917 117.417 12.175C117.35 12.9417 117.442 13.6167 117.692 14.2C117.942 14.7833 118.325 15.2417 118.842 15.575C119.358 15.8917 119.983 16.05 120.717 16.05C121.383 16.05 121.95 15.9167 122.417 15.65C122.9 15.3833 123.275 15.0167 123.542 14.55L126.542 15.975C126.275 16.6417 125.85 17.225 125.267 17.725C124.7 18.225 124.025 18.6167 123.242 18.9C122.458 19.1667 121.6 19.3 120.667 19.3Z" fill="#1AAB7B"/>
</svg>
